<?xml version="1.0" standalone="no"?>
<!DOCTYPE svg PUBLIC "-//W3C//DTD SVG 20010904//EN"
 "http://www.w3.org/TR/2001/REC-SVG-20010904/DTD/svg10.dtd">
<svg version="1.0" xmlns="http://www.w3.org/2000/svg"
 width="225.000000pt" height="225.000000pt" viewBox="0 0 225.000000 225.000000"
 preserveAspectRatio="xMidYMid meet">
<metadata>
Created by potrace 1.16, written by Peter Selinger 2001-2019
</metadata>
<g transform="translate(0.000000,225.000000) scale(0.100000,-0.100000)"
fill="#000000" stroke="none">
<path d="M745 2241 c-73 -18 -132 -68 -159 -133 -13 -31 -16 -92 -16 -368 l0
-330 81 0 81 0 -35 39 c-45 50 -54 93 -32 149 28 68 101 105 172 87 31 -7 345
-311 369 -357 8 -15 14 -43 14 -63 0 -20 -6 -48 -14 -63 -8 -15 -88 -100 -178
-188 -172 -170 -191 -183 -263 -170 -65 12 -115 75 -115 144 0 29 38 96 68
120 13 10 1 12 -66 12 l-82 0 0 -360 0 -359 36 -35 c75 -73 137 -86 410 -86
l204 0 0 -47 c0 -27 5 -65 11 -86 13 -49 71 -113 115 -127 80 -27 110 -18 413
111 157 67 301 133 320 147 18 13 42 43 52 66 18 39 19 83 19 897 l0 856 -23
44 c-16 29 -40 54 -72 74 l-48 30 -616 2 c-339 1 -629 -2 -646 -6z"/>
</g>
</svg>
