<svg xmlns="http://www.w3.org/2000/svg" xmlns:xlink="http://www.w3.org/1999/xlink" viewBox="0 0 400 300"><defs><linearGradient id="linear-gradient" x1="104.37" y1="269.1" x2="142.62" y2="228.04" gradientUnits="userSpaceOnUse"><stop offset="0" stop-color="#fff" stop-opacity="0"/><stop offset="1" stop-color="#4d4d4d"/></linearGradient><linearGradient id="linear-gradient-2" x1="279.45" y1="196.5" x2="293.12" y2="181.03" xlink:href="#linear-gradient"/></defs><title>0</title><g style="isolation:isolate"><g id="Layer_2" data-name="Layer 2"><path d="M324.32,181.36,222.14,121.94a4.83,4.83,0,0,0-4.83,0L64.51,209.38a4.83,4.83,0,0,0,0,8.38l97.71,56.41a15.77,15.77,0,0,0,15.77,0L324.3,189.72A4.83,4.83,0,0,0,324.32,181.36Z" fill="#ccc"/><polygon points="213.25 218.42 142.22 262.41 81.41 227.53 147.33 185.38 213.25 218.42" opacity="0.63" fill="url(#linear-gradient)" style="mix-blend-mode:multiply"/><path d="M147.3,254.84l-36.79-22.3a6.72,6.72,0,0,1-3.11-6.61l1.94-142.23Z" fill="#68e1fd"/><polygon points="109.55 231.72 154.18 201.5 147.3 254.84 109.55 231.72" fill="#68e1fd"/><path d="M147.3,254.84l-36.79-22.3a6.72,6.72,0,0,1-3.11-6.61l1.94-142.23Z" fill="#606060" opacity="0.61"/><polygon points="109.55 231.72 154.18 201.5 147.3 254.84 109.55 231.72" fill="#606060" opacity="0.61"/><path d="M109.33,83.71l35.54,167.85a4.73,4.73,0,0,0,7,3.11l108.9-63.06a7.86,7.86,0,0,0,3.73-8.52L228,20.69a7.86,7.86,0,0,0-11.6-5.08L113.09,75.28A7.86,7.86,0,0,0,109.33,83.71Z" fill="#68e1fd"/><path d="M184,74.92h0c-.08.09-.24.09-.32.18-.28-.64-.43-.51-1.08-.53l1-.66c-.12,0-.2-.17-.31-.22l.49-.3c-.37-.2-.53-.36-.92-.22s-.57.25-1,.05-.59,0-1,0c-.17,0-.42.42-.56.55.17.07.92.27.92.45,0,.38,0,.87-.52.77-.24,0-.54-.62-.79-.54s-.66.33-.33.6c.62.5,1.34.66,1.85,1.31.23.29.42.68.77.76s.76-.17.64-.54c.48.21,1.82-.68.94-1a2.42,2.42,0,0,1,.4-.15l-.21-.5Zm14.4,7.71h0c.25.22,1,.64,1.25.19s.06-.68.23-1.14c-.59-.82-2.14.35-1.48.95Zm4.35-5.43c-.17.1-.89.41-.83.61.16.45.7.09.85-.26s1.75.59,2.06.75c-.13.44-.73.44-1.08.55.28,0,.59,0,.48.39.29-.15.69-.23.76-.63.27.18.69.37.68.77a1.38,1.38,0,0,0-1.09.29,1.48,1.48,0,0,0,.76.19c.49-.09.45-.1.63.41l-.94-.19.1.63-.67.08c.79.36,1.59.66,2.4,1a1.69,1.69,0,0,1,.81.6c.35.38.57.36,1.06.43l-.32.49a3.66,3.66,0,0,1,1.22,0c.5.22.31.54.25,1.07-.24,0-.63-.21-.8,0l.57.27c-.57.3-.79.6-1.34.22a3.15,3.15,0,0,1,0,1.29,3.55,3.55,0,0,1-1.44-1.15c.29-.13.73-.17.6-.63-.18.07-.58.32-.77.27s-.48-.53-.72-.66-.47-.19-.63.06.19.35.21.75l-.62-.08.2.63c.31-.12.38-.27.5.09l.29.9c.09-.47.33-.26.61-.13s.31.26.4.68.38.23.54.49a3.51,3.51,0,0,1,.13,1l-.37-.49c-.22.39.35.5.18.9-.08,0-.2,0-.27-.08l.18.46c-.16.05-.58-.5-.83-.65l-1.36-.85c.06.12.06.27.13.39l-.8-.36.45.79c.11.19.52.15.69.27l.83.59c.27.19.16.33.12.68l-2.23-.57c-.27-.07-.26-.41-.42-.45l-1.13-.29.13-.2a1.62,1.62,0,0,1-.94-.35l.6-.3c-.34-.19-.74-.15-.95-.48-.38-.59-.37-1-1-.56,0-.26-.14-.39-.38-.35,0,.11-.06.24,0,.35-.34-.08-.7-.3-1,0s-.74.18-1.12.2-.64-.46-.51-.69.67-.41.6-.78a4.56,4.56,0,0,0,1.72.13c.13,0,1-.17,1-.29.11-.28-.48-.58-.62-.68l1.38-1.39c.12-.12.33-.21.24-.38l-.58-1.07c-.3-.54-.91-.39-1.19-.88s-.18-.34-.56-.2l-.85.32c0-.71.12-.61.74-.79-.33-.27-1.06-1.22-1.46-.79,0-.19-.07-.38-.11-.56s-.34,0-.46,0c-.34-.16-.3-.85-.77-.41.38.11.43.29.6.66a4.05,4.05,0,0,1-2.34-.25l.67.63c-.3.11-.37-.27-.65-.3-.09,0-.17.28-.28.23l-.54-.21a6.24,6.24,0,0,0-1.83-.1,1.93,1.93,0,0,1-.83-.22c-.33-.3.11-.47-.5-.41-.27,0-.42.28-.75.09a2.58,2.58,0,0,1-1.09-1l1.74.15c-.58-.62-1.1-.53-1.9-.61-.09,0-.17-.87-.19-1,0-.28.31-.85.41-1.11a2.16,2.16,0,0,1,1.26-1.36,3.26,3.26,0,0,1,2.09-.25c-.05.22-.11.43-.16.64a8.62,8.62,0,0,0,1.69-.58,2.3,2.3,0,0,1,.83,0c.31,0,.24.43.41.67s.31.21.47.55.17.48-.08.93.11.38.33.16c.4-.4.37-.38.84-.09.13.08.52-.41.64-.52s.66-.12.89-.15a2.37,2.37,0,0,1,1.53.6c.28.27,1,1.35,1.25,1.25.47-.17,1.33-.27,1.53.4Zm-23.27-7.38h0A.68.68,0,0,0,179,70h.63c-.67.46.27.49.59.43.49-.11,1-.15,1.5-.21a.37.37,0,0,1-.41.24l.13.1a.52.52,0,0,0-.51.22,1.3,1.3,0,0,1,.59.15,2.37,2.37,0,0,0-.38,0c0,.33.3.3.56.39s.22-.19.35-.18c.4,0,.93.21,1.27-.13-.13-.06-.22-.2-.35-.26a.44.44,0,0,0,.19-.42c.07.07.18.1.26.17.06-.29-.12-.37-.14-.61s.1-.43.09-.62a1.26,1.26,0,0,0-.33-.56c-.15-.06-.47-.27-.63-.18-.46.28-.81-.11-1.37.1s.41.28.47.56c-.11,0-.23,0-.34,0l.47.64c-.21-.12-1.77-1.61-1.7-.58l.45,0c-.34.14-.27.49.09.38-.1.33-.69,0-1,.09Zm0,9.9a1.38,1.38,0,0,1-.27-.16,1.42,1.42,0,0,0-.3,0c.22.22.16.46.15.75.28-.28.54-.52.95-.4-.25.35.13.29.13.56s-.61.35-.76.37a17.88,17.88,0,0,1-1.77-.28c.07,0,.13-.12.2-.16l-1.08-.22c0-.09,0-.22.08-.31-.31-.1-.31.18-.53.35a1.18,1.18,0,0,1-.7.29c-.51.09-.7.45-1.21.48l-2.25.18c-.61,0-.76-.31-.7-1-1.07-.06-2.34.16-2.73-1.17a7.42,7.42,0,0,1,2.19-.43,10.26,10.26,0,0,0,1.28.17c.19,0,1.09-.16.54-.3a8.43,8.43,0,0,0-2.29-.38l-1.66,0c-.43,0-.52-.18-.85-.51l1.64-.73-1.57.05c.05-.08.06-.21.12-.29h-.74c-.08-.5.4-.75.7-1-.12,0-.22-.14-.33-.16a7.05,7.05,0,0,1,2.22-1.2c.42-.16.59-.32,1-.09s.15.69-.21,1l.66-.05c.21,0,.27-.47.45-.51s1,.49,1.32.62l-.31.42c.4,0,.43,0,.64-.34.09-.15.61.08.76.12l-.7-.73c.4-.06,1.34,0,1.53.52.13.4.27.8.41,1.2s.28.15.59,0l-.46-1.31-.21-.58c-.07-.18.27-.27.09-.55.15.07.66.45.76.3.21-.32.46.08.74.24.67.37.85,1.45,1.15,2.18.12.31-.14.66,0,.88s.84.51,1,.63a2.58,2.58,0,0,0,1.62.58c0,.32.09,1.25-.37.55,0,.09-.12.17-.15.26-.32-.27-.64-.44-.74.18Zm2.3.75h0a1.19,1.19,0,0,0,.3.26c.06-.14.11-.1.17-.18a.33.33,0,0,0,.31.3l.06-.17c.15.45.85.49,1.23.56s.78-.33,1.12-.55a11.26,11.26,0,0,0-1.4-1.1c-.28-.19-.51-.51-.77-.24s-.52.44-.18.68l-.17,0c-.17.35-.49,0-.68.39ZM196,87.55h0a1.16,1.16,0,0,0-1.18-.31c.52-.52-.84-1.2-1.09-1.38s-.52-.07-.68-.25-.34-.39-.61,0a1,1,0,0,1-.15-.31c.54-.09.37-.84-.09-.64s-.45.62-.59,1.15c-.06.22-.09.44-.13.66s.13.41.07.54-.61.56-.74.76a8.9,8.9,0,0,1,1.09-.2c.11.07.17,1,.37.83s.52-.63.78-.72c.43-.16.38-.51.82-.68-.1.7,1.08.84,1.51,1l.63-.42Zm-8.72-15.9h0c.17.38.66,0,.89-.12.18.37.16.43.54.47s.59.15.67-.3c.05.1.17.17.22.27,0-.16.08-.32.08-.47.4.17,0,.66.43.68l1.36.06c0-.1,0-.23,0-.33.24.33.86.46,1,0,.12.5.82.18,1.16.13,0-.19-.06-.37-.1-.56.47,0,.22.51.56.63a1.55,1.55,0,0,0,.82.16c.18,0,1,0,1.09-.24.13-.43.26-.39.66-.52a1.13,1.13,0,0,0-.65-.25l.55-.4a2.66,2.66,0,0,0-2.51-.77c-.39.13-.72-.07-1.13.08a8.6,8.6,0,0,1-1.2.33c.09.06.16.15.25.2a5,5,0,0,0-1.42-.31c-.13,0-.38.26-.49.18l-.61-.39c-.11-.07-.95-.54-1-.56-.08-.27.76.06.84-.33l-.71-.2c-.33-.09-.17-.26-.41-.42-.42-.27-.87.11-1.31,0s-.67-.48-1.07-.54a3.66,3.66,0,0,0-1.46-.16c-.73.21-.51.5,0,1s.73.37,1.31.29.73-.25,1.08.17c.22.25.8.73.43,1.09-.22.55-.09.65.16,1.18ZM200.15,81.9a.55.55,0,0,1,1,.31c-.1,0-1.24,0-1-.31ZM189.7,59.67l-1.17.47-1.22-.57c.64-.36,1.39-.77,2-.25.46-1,1.63-.52,2.51-.57l-.7-.33,1,0-.2-.52c.29,0,.72-.07,1,.1a5.06,5.06,0,0,0,1.15.75l2.6.65-2.35-1.27c.27-.23.64-.72,1-.74l.92-.06c.22,0,.26-.27.45-.34a3,3,0,0,1,1.28.23l1.4.58-1.19-1,2,0c.46,0,1,.55,1.35.81l-.33-.66a21.41,21.41,0,0,1,2.48-.37,18.93,18.93,0,0,1,2.58.37l-1.36.77a6.09,6.09,0,0,1,2.43-.3,16.9,16.9,0,0,1,2.77.74,7.92,7.92,0,0,1-2.41,1.22l-3.19.24,1.44.24-2.48.74,4.07-.82c0,.66-1.83,1.12-2.38,1.46a5.84,5.84,0,0,1-1.42.87l-1.59.33,1,.05a3,3,0,0,1-1,.8c-.31.16-.74-.08-1.07-.16l.15.49c-.91.18-1.84.27-2.76.38.38,0,1.83-.14,1.71.47h-1.52c.36.1,1.52.13,1.47.68l-1.32.17.75.41a1.57,1.57,0,0,1-1,.74c-.26.09-.86-.29-1-.16s.48.38,0,.76c-.15.13-.94.71-.78,1s.19.19.47,0,.29,0,.53.11.11.43.13.6-.35.19-.45.23-.29-.15-.34-.13-.19.29-.32.34l-1.32.4c.09-.39.22-.52-.08-.76s-.38.25-.69-.08c0,.6-.74.27-.9-.09.09.47-.32.29-.56.21s-.38.26-.76.26a9.6,9.6,0,0,1-1-.09c-.33,0-.63.23-.72-.26-.18.57-.86.21-.88-.29-.28.33-.4.64-.73.21.25-.16-.07-.31,0-.46s.54-.24.72-.31c.51-.22.76-.09,1.19-.52-.61-.06-.61-.12-.93-.69a2.18,2.18,0,0,1,1.28-.08c.38.05.41.64.84.76,1.06.28,1.45-.32,2.05-1.17-.36.39-1.11,1.32-1.73.87-.79-.57-.14-1,.11-1.75-.34.32-.7.91-1.15.8-.66-.14-1.3-.18-.6-.89a2.65,2.65,0,0,1,3-.18,4.64,4.64,0,0,0-1.32-1.59c-.58-.4-1.65-.33-1.1-1.39,0,.05,1.79.05,1.89.08a8.82,8.82,0,0,1,1.89,1.15l-1.34-1.23c1.34-.25,2.65-.53,4-.87l-.62-.28,1-.9a6,6,0,0,0-2,1.21c-.2.2-.83.18-1.08.23L194,61.7l.75-.63-1,.3c.08-.08.14-.2.22-.27-.14,0-.61.09-.63.26-.05.47-.1.37-.52.37a12.19,12.19,0,0,1-1.56-.16,3.63,3.63,0,0,1,1.66-.91,3,3,0,0,0-1.86.6c-.56.38-1.18,0-1.79-.19a3.93,3.93,0,0,1,1.56-.3,4.09,4.09,0,0,0,1.66-.57,9.51,9.51,0,0,1-2,.44c-.71,0-1.34.37-1.94-.06l1.07-.9Zm-8.93,7.08h0c-.26-.33-.58-.28-.93-.21s-.15.36.14.35.5-.23.79-.14Zm15.55,23.63h0c.21-.2.87-.87.23-1.08-.27-.09-.53.23-.56.46s.11.38.32.61Zm-3-1.08h0c0,.08.08.37.18.36a1.37,1.37,0,0,0,1.41-1.09l-.46,0a1.61,1.61,0,0,0-.93.33c-.21.17-.29.15-.19.42Zm-7-18.11c.15.81-.4.73-1,.81-.24-.13-1.24-.49-1.33-.74-.21-.64,1.07-.87,1.32-.94.44-.14.9.48,1,.88Zm-8.5-6.34a3.39,3.39,0,0,1,.18-.4l-.65,0c.23-.67.57-.53,1.2-.62s.82.3,1,.79c.28-.15,1.3-.56,1.16.25.41-.07.5-.13.84.15s.16.14.08.39.21.36.33.49c.77.87-.78.9-.94.61s-.21-.54-.57-.58-.82,0-1.07-.28-1.48.82-1.6-.29c.39-.26,1.29.25,1.22-.4l-.58-.11c.08,0,.13-.14.2-.19-.34-.34-.46.23-.85.19Zm.18,2.94h0c.18.21.4-.11.21-.34a2.79,2.79,0,0,0-.42-.41c-.23-.17-.42-.42-.72-.29l.16.63c.21.18.64.25.76.41Zm4.44-5.15h0c-.18-.44-1.26-.32-.93.29.48.19,1.31.66.93-.29Zm1.42,3.44h0c-.21.1-.44.06-.65.15.18.08.52.43.59.44a2.53,2.53,0,0,0,.66-.14c.23-.06.67-.07.81-.3s-.2-.32.1-.62c-.27-.1-.63-.09-.85-.18s-.41-.32-.65-.42-1.57-.37-.89.35l-.23,0c.17.66.74.33,1.11.69Zm-11.19.24h0c-.68.11-1,0-.84.8.31,0,.57.43.83.36l1.24-.31c.29-.08.14-.18.21-.39s-.46,0-.56-.23c.35-.08.68-.09.93-.4-.51-.22-1.29.09-1.8.17Zm1.25,2.85h0l.8.49-.54.22c.17.08.87.25.84.45-.06.43-.47.22-.83.2-.18,0-.94.07-1-.15-.11-.48-.17-.43-.61-.39l.22-.12c-.29-.23-.65-.71-1-.65-.68.12-.43-.14-1-.36-.11,0-.95,0-1,.24s.68.29.85.33a2.72,2.72,0,0,0-1.47.11v.27c.35.21,1,0,1.36,0-.18.12-1.78,0-1.74.43s1.39,0,1.56-.09c-.52.43-1.59.12-1.91.74a1.62,1.62,0,0,0,1.09.08c0,.07,0,.15-.05.22a4.35,4.35,0,0,0,.55.15c-.13-.39.3-.32.36.05.47-.29.55-.32.7-.89.35.12.2.37.14.67.27,0,.89.1.93-.28.17.39.82.19,1.1,0-.54.58-1.66.67-2.42.94.92.6,1.31.4,2.29,0l1.65-.6c.32-.11.5.19.8.17.15,0,.17-.28.42-.28h.79c.34,0,.5-.41.58-.78s.06-.89-.55-.81-.12.31-.41.68c-.11-.38-.23-.44-.56-.54s-.25-.45-.42-.59c-.36-.29-.08-1.14-.82-.84a3.43,3.43,0,0,1-.78.83Zm10-6.63h0c.11.86,1,.86,1.61.63-.19.3-.47.27-.77.32s-.16.34.06.31.2.39.46.19.3-.29.54-.2c0,.06,0,.13,0,.19.26.14.35-.08.57-.19.06,0,.32.28.24-.14.42.17,1.12,0,1.42.22l-1,.13a3.52,3.52,0,0,0,1.58.07,13.7,13.7,0,0,0-2.83.49,2.6,2.6,0,0,0,.9.34l-.5,0c.27.42,1,.27,1.5.37l-.94.11c.41.66,1.35.54,2,.57a.46.46,0,0,0-.32-.34c.42,0,.6.16.93.43l-.46-.94.93.91c.14-.36.24-.53,0-.88,1.31.7-.12-.55.76-.81a1.13,1.13,0,0,0,.15.76c.24-.2.6-.33.43-.71.23.2,1.15-.3,1.53-.41a2.64,2.64,0,0,0-.62-.67c0,.12-.15.22-.17.34,0-.65-.75-.26-1.05-.14.34-.65.51-.94-.3-1,.5-.43-.2-1-.66-.59l.3.52a.68.68,0,0,1-.66-.31c-.09-.14.15-.59-.23-.47a1,1,0,0,1-1.06-.39c-.45-.51-.7-.92-1.32-1.09-.37-.1-1-.31-1.26.1.35.12.73,0,1,.18-.32.56-1.44-.25-1.79.64.28.09.7,0,.91.23-.27.06-1.54.11-1.15.52l-.6.22a3.52,3.52,0,0,0,.88.17l-.16.09c.32.15.67-.2,1,0-.11,0-.2.14-.31.16.08.06.13.16.21.21a3.64,3.64,0,0,1-.36-.1l-1.29-.07Zm-5.69,6.9c.23-.27,1-.29,1.34-.23.11.63-1.08.53-1.34.23Zm-9.69.07c.08.3-.32.62-.48.84s-.7.27-.79,0,1.05-.8,1.27-.86Zm7.81,4.29h0a1.44,1.44,0,0,1,.71.45c.25.23.39.49.7.35a1,1,0,0,0,.42-.73c0-.35-.23-.38-.51-.57-.5.1-1.1-.08-1.32.51Zm2.53-2.7h0c-.19-.52-.44-.45-.85-.31-.49.68.61.42.85.31Zm-.81-2.4a.89.89,0,0,1,.76,0l.49.31c-.27.28-.7.19-1,.16,0-.22-.09-.21-.21-.45Zm8.15-1.42c-.44,0-1.8.21-2-.37a2.88,2.88,0,0,1,2.3-.12l-.35.49Zm9.91,7.36h0a1.89,1.89,0,0,0,.51.3c.25.15,1-.2,1.34-.26a4.91,4.91,0,0,1,1.18.05,3.82,3.82,0,0,0-1.52-1.23c-.22-.12-.54.06-.78,0l-.85-.31a.5.5,0,0,0-.12.94c.35.17.06.28.25.54ZM188,67.08h0c-.27.25.28.47.42.53s.49,0,.75-.1a.73.73,0,0,0-1.16-.44Zm.5,1.28c.19-.15.79,0,.47.24,0,.06.06.2.11.27-.22.09-.85-.31-.58-.52ZM172.63,65.7c-.22-.13-.59.06-.82.12l-.18-.12c.3-.43,1.12-.49,1.56-.63.27-.09,1.31-.11,1.41.3.16.68-1.15.18-1.37.21s-.24.32-.6.12Zm-2.12,2.69c.2-.24.5-.17.78-.18a1.5,1.5,0,0,1,.24.2c-.3.23-.69,0-1,0Zm27,64.62h0a2.6,2.6,0,0,0,.84.44c.17,0,.38-.23.69-.13a2.06,2.06,0,0,0-.18-.27c-.38-.13-1-.5-1.35,0Zm-2.59-24.9h0l-.1.1.07,0c.13-.15.18-.22.13-.39l-.08.11a.31.31,0,0,0-.47-.18c-.25.11-.35-.14-.6.05l.21,0c.24.11.61.35.86.2Zm-1.47-.58h0c-.15-.11-.18,0-.22,0l.15.16.07-.15Zm.35.35a.86.86,0,0,1-.38-.09l.15-.13.22.12s0,.07,0,.1Zm20.3-5.34h0l.3-.64c-.61-.25-1.27.58-1.5,1.13a5.52,5.52,0,0,1-1.37,2,1.49,1.49,0,0,0-.09.94c.15.24.68.17.9.15a3.41,3.41,0,0,1,2.07.28.46.46,0,0,0-.36.5c.61-.13.74-.55,1.38-.6-.09.47-.15.48.26.64s.4.14.61-.17,0-1.15-.12-1.53-.49-.35-.46-.49c.06-.41,0-.42-.26-.74s-1.07.08-1.33.15c0-.16,0-.5-.12-.57s-.37-.1-.37-.25c0-.48.14-.53.47-.84Zm-8.34,30.63h0c.17.43.91.08,1.09-.18l-.12-.13c-.33,0-1.22-.31-1,.31Zm-6.12-1.52h0c.3-.08.6-.17.9-.26a1.56,1.56,0,0,0-.71-.43c-.21,0-.33-.36-.43-.35a1.5,1.5,0,0,1-1.21-.59l-.05.11a6.51,6.51,0,0,0-2.85-1.22,4.58,4.58,0,0,0-1.66.22c-.48.12-.6.58-1,.82.76.4,1.63-1.31,2.38-.55a.5.5,0,0,1-.39.08.53.53,0,0,0,.55.2c.24-.07.26.11.51.12.42,0,.81.31,1.25.37s.43.54.88.76c.12.05.57-.06.56.25,0,.1-.38.39-.45.46.56.1,1.13,0,1.7,0Zm8.36-25h0c-.36.66.26.77.71,1s.57-.05.88-.4l-1.39-.11-.2-.47Zm-.28-2.93h0c.46.37,1.51,1.25,2.09.78a2.63,2.63,0,0,0-2.09-.78Zm21.59,49.79h0c.22,1,.24,1-.29,1.73l-2,2.84a2.78,2.78,0,0,0-.72,1.35c-.1,1.39-.2,2.79-.3,4.19-.06.92-1,1.87-1.5,2.61-.21.31-.38.85-.76.87s-1.2-.1-1.5.11l-2.76,1.9c-.18.13-.18,1.5-.21,1.75s0,.79-.17,1l-2.29,2.94-2.1,2.7c-.16.2-2.36-.75-2.7-.85-.2.75,1.06.84,1.19,1.49a4.53,4.53,0,0,1,.25,1.25c-.06.29-.48.7-.63.94-.46.68-1.08.66-1.83.86a3.24,3.24,0,0,1-1.79,0c.14.46.26.66.09,1.09-.1.27,0,.72-.13.83-.73.51-1.15.29-1.92-.09a5.94,5.94,0,0,0,0,1.26c.06.27.5.72.39,1l-.69,1.5c-.23.49-.31.44-.82.57s-.52.49-.75.91c-.14.26.4.77.56,1s.87,0,.74.5a2.16,2.16,0,0,1-.51,1,3.43,3.43,0,0,0-.76,1c-.19.6-.34.63-.86.93s.06,1.88.16,2.45c0,.21,0,.71.2.85l1.16,1c.68.58,1.14.48,2,.5l-2.37,1.07c-.63.29-.75.12-1.4-.19l-2.79-1.35c-.48-.23-.56-.77-.78-1.29-.52-1.23-1.37-2.44-1.22-3.82l.7-6.14c.22-2,.31-4,.68-6l1.39-7.35.85-4.47a15.13,15.13,0,0,0,.38-2,11,11,0,0,0-.21-1.71,5.21,5.21,0,0,0-.19-1.52c-.2-.32-.86-.6-1.16-.81l-1.72-1.2a3.42,3.42,0,0,1-1.1-1.48l-2.12-4-1.75-3.27c-.36-.67.25-1.91.41-2.61a4.66,4.66,0,0,1,.34-1.39l1-1.28c.74-.95,1.38-1.5,1.19-2.84,0-.3-.23-.47,0-.69,0,0-.08-.46,0-.62.09-.41-.81-.78-.71-1.18s.1-.43-.31-.66-.29-.15-.58,0a3.11,3.11,0,0,0-.59.48c-.1.1.19.44.26.56-.57.25-.55.31-.81-.31-.12.34-.69-.24-1-.3-.17,0-.28.16-.38.08l-.52-.4c-.36-.27-1.07-.61-1.31-1s-.1-.84-.37-1.15c-.68-.78-1.09-1.48-2-1.75-.74-.2-2-.26-2.54-.83l-1.53-1.51c-.33-.33-.8,0-1.2.14-.9.28-1.83-.38-2.69-.73l-2.09-.84a2.64,2.64,0,0,1-.81-.33l-1.36-1.38c-.42-.42-.17-.68,0-1.27.11-.39-.61-1.14-.81-1.45A4.3,4.3,0,0,0,176,128l-1.46-1.36c-.11-.1,0-.42.05-.56s-.24-.38-.32-.49a6.21,6.21,0,0,0-1.07-1.18c-.37-.28-.76-.46-.9-.93-.08-.27-.28-1.54-.5-1.64l-1.35-.62a6.6,6.6,0,0,0,.58,1.9,6.33,6.33,0,0,1,1.2,1.77,1.67,1.67,0,0,0,.6.82,2,2,0,0,1,.43.87,3.08,3.08,0,0,1,.29,1c0,.55.26.16.43.28s.55.47.51.76-.38.46-.54.18a4.36,4.36,0,0,0-1.43-1.34c-.15-.11-.09-.8-.11-1s-.46-.5-.66-.67-.39-.09-.61-.28l-.75-.67c.3,0,1-.1.61-.67a2.3,2.3,0,0,0-1-1c-.34-.17-.43-.74-.57-1.1l-.72-1.85a2.91,2.91,0,0,0-1.78-1.44c-.53-.14-.71-.1-.94-.61l-.77-1.68c-.38-.83-1.13-1.33-1.39-2.24a8.44,8.44,0,0,1-.26-3.18c0-1,.1-2.07.16-3.1a6.35,6.35,0,0,0-.5-2.59,13.34,13.34,0,0,1,1.69.52c0-.84.06-.94-.48-1.53a7.55,7.55,0,0,0-1.27-1.08,6.4,6.4,0,0,0-1.34-.5c-.75-.33-.86-.36-1.2-1.15s-1.75-1.4-1.66-2.42,0-.86-.74-1.33c-.11-.07-.56.93-.87.44s-.62-1.29-1-1.47a1.85,1.85,0,0,1-1-.88,10.7,10.7,0,0,0-1-1.57,8.23,8.23,0,0,0-1.22-.84,11.41,11.41,0,0,0-2.82-1.37c-.41-.16-.92.2-1.34.1a5.85,5.85,0,0,1-1.34-.82,1.63,1.63,0,0,0-1.29-.39c-.54.05-.8.2-.6.87s-2,1.17-2.51,1.33a.34.34,0,0,1,.25-.49c-.37-.11-.09-1.18.15-1.31a2.34,2.34,0,0,1,1.43-.3l-.42-.38.48-.36a4.33,4.33,0,0,0-2.19,1,5.42,5.42,0,0,0-1.45,1.94l.67.17a9.53,9.53,0,0,1-2.23,2.06c-.44.32-1.83.68-1.89,1.33s-1.86.93-2.38,1.08a3.77,3.77,0,0,1-.64.1c-.27,0-.13.17-.34.31a1.34,1.34,0,0,1-1.22.26,6.75,6.75,0,0,1,1.37-.83c.37-.23,1.46-1.28,1.79-.7.23-.42,1.1-1.38,1.58-1-.16-.45.66-.74.75-1.23a1.1,1.1,0,0,1,.36-.79c.18-.18.35-.27.17-.55-.59.32-1.23.85-1.83.41-.21-.15-.61-.61-.86-.5l-.92.41q-.16-.94-.32-1.88c-.15.09-1,.67-1.07.58-.3-.25-.88-.54-1.08-.89a6.08,6.08,0,0,1-.34-1.53c-.08-.36.21-.64.39-.94.35-.6.31-.75.95-.69s.61-.38,1.08-.57.84.18,1.07-.4-.09-.54-.4-.89l.42-.24c-.2-.6-.68-.07-1,.13s-.5,0-.94,0c-.87.11-1.85.29-2.33-.66.11,0,.21-.14.32-.17-.43-.15-1-.21-1.29-.63a3.57,3.57,0,0,1,1.76-.63l-.15-.19a2.77,2.77,0,0,1,1.44-.41c0,.69.5.59,1,.73s.62-.09,1-.37l-.57-.24.22-.09c-.21-.17-.27-.36,0-.52a5.73,5.73,0,0,1-1.39-.28c-.39-.13-.38-.75-.76-.92s-1.36-.42-1.47-.69.19-.64.23-.78.28-.06.36-.07c.41,0,1,.1,1.31-.28a7.42,7.42,0,0,1,1-1.25,4.84,4.84,0,0,1,2.4-1.11,2.81,2.81,0,0,0,1.45-.45c.62-.5.58-.51,1.26-.15s2.32-.12,2.58.62c.19.54,2,.5,2.57.57.89.11,1.79.22,2.67.38l3.94.69a11.28,11.28,0,0,1,2.49,1c.14.06,1.06-1.05,1.21-1.2s.72.49,1,.36c.47-.2,2.56-1.48,2.86-1l-2.29,1.21c.59.41,2.53-1.29,2.7-.57l.68-.8c.18-.22-.27-.28.06-.55.58.68,1.16,1.3,1.8,1.92a2.21,2.21,0,0,1,.76-1.3c.29.3-.22.44.18.67.15.09-.09.4-.16.54a2.9,2.9,0,0,0,.93-.24c.08-.06-.09-.37,0-.39l.43-.06c.51-.07,1.18.41,1.65.62a21.88,21.88,0,0,0,3.09.84c0-.07,0-.14-.07-.22a2.76,2.76,0,0,1,1.55.71c.42.29-.86.73-1,.77a3.76,3.76,0,0,0,1.33.33l2.21-.18c.34,0,.94-.13,1.18.24l1,1.51-.15-.66c0-.13.1-.26.09-.38-.08-.52-.31-.39,0-.9.2-.34,1.7-.38,1.36-.91a4.72,4.72,0,0,1-2,.51c.17-.67.44-.6,1-.8s.71-.27,1.28.06c.16.09.26.47.35.64s.28.2.52.25a9.24,9.24,0,0,1,1.36.42c.38.14,2.48.38,2.57.09.18-.6.21-.89.87-.88a5.84,5.84,0,0,1,1.29.33c-.06.2-.32.8-.25,1s.65.44.81.55c-.21-.68-.46-1.28.37-1.41.34-.06.54-.37.8-.62s.05-.41,0-.66l-.65.31c-.08-.67.41-.78.88-.82,0-.53-.52-.15-.84-.27s-1.13-.27-1.24-.54a3.39,3.39,0,0,1-.21-1.57c0-.61.29-.69.75-.5.08-.29-.12-.4-.36-.37.45-.29.52-.25.5-.82a2.11,2.11,0,0,0-.25-1.14,2.42,2.42,0,0,1,0-1.18c0-.29.5-.13.72-.13-.82-.9.62-.65,1.18-.65a6.26,6.26,0,0,1,2.08.3c-.31.46-.74,1.45-1.19,1.72s-1.38,0-1.8,0c1.35.2-.2,1.08-.12,1.52.69-.12,1.08.48,1.2,1.13.08.42.76.92,1,1.26l-1,.68c.33.13.6.35.91.14s.58,0,.91.21l-.48.33c.32.27.49.28.39.72s-.18.53.21.77a1.66,1.66,0,0,0,.4-.91c0-.16.15-.79.43-.62s.8.35.84.57.32.8-.14.95c0-.09,0-.19,0-.28-.94.52,1.15,2.4,1.24,1.38,0-.29,0-.46.19-.64s.41-.28.41-.44c0-.76,0-.72.65-1-.26-.4-.49-.59-.4-1.07s.36-.36.78-.29,1,0,1.22.24a1.42,1.42,0,0,0,1,.6c-.22.4.13.65-.1.93s-.65.11-.86.13a3.11,3.11,0,0,0,.64,1.08c.34.32.5.57.13,1a4.55,4.55,0,0,1-1.16.71c-.32.2-.54-.22-.8-.46l.39.88-.61-.32c0,.08,0,.16.08.25l-.62-.14c-.14,0,0-.39-.17-.38-.31,0-.75-.12-.91.24l.58.34a2.47,2.47,0,0,1-.7.87c-.46.26-.63,0-1.09-.21a4.73,4.73,0,0,0-2.2-.39l1.7.86a5.44,5.44,0,0,0,1.55.2c-.18.31-.48,1.15-.78,1.29s-.41.26-.6.25-.47-.11-.67,0c-.63.44-.67.47-1.38.25-.45-.13-.9-.24-1.35-.37l.89.41c-.06.06-.11.14-.17.19a1,1,0,0,1,1,.13c.22.13.57.46.2.64a1.73,1.73,0,0,1-1,.17c-.14,0-.37.5-.45.61a6.26,6.26,0,0,0-1.07,1.86c-.16.77-.32,1.55-.49,2.33.31.07,1,.08,1.22.29s.41,1.14.54,1.49c.22.63.37.4,1,.27.32-.07.68.15,1,.26a8.75,8.75,0,0,1,2.36,1.2c.25.18.74.7,1,.73l1.35.14c.16,0,1,0,1,.19,0,.63-.05,1.25-.08,1.87,0,.87.83,1.53,1.34,2.16s1.54-.53,1.46-1.05-.18-1.11-.28-1.67c0-.3-.44-.69-.6-.94.55-.36,1.61-.75,2-1.3a2.3,2.3,0,0,0,0-2.25,6.63,6.63,0,0,1-.85-.9c-.35-.49-.46-.44,0-.84s.52-.37.34-1c-.09-.34-.31-.76-.2-1.11a1.69,1.69,0,0,0,0-1.38c-.12-.4.13-.53.53-.58.74-.09,1.43.55,2.15.21.46-.22.58,0,1,.33.2.15.78.4.85.67s.33.72.79.66a1.55,1.55,0,0,1,.95.29c-.2.33-.31.42-.25.8a1.79,1.79,0,0,1,0,1c.1,0,.2,0,.3,0-.18.22-.69.59-.41.84.48-1.42,2.18,1.67,2.53-.24.08.09.22.09.3.18.19-.41.5-.8.42-1.26s.41-.95.73-.88q-.06.25-.11.51c.74,0,1.23,1.55,1.58,2.16.2.34.79,1,.82,1.4,0,.21-.36.51-.32.71s.39.31.45.37a2.72,2.72,0,0,1,.61.49c.13.22-.09.47.22.49a2,2,0,0,1,1.28.36c.32.22,1,.53.26.64a7.72,7.72,0,0,0-1.17.34c.24.09.55-.08.8-.16-.17.31-.73.34-1,.44s-.2.7,0,.49a.79.79,0,0,1,.46-.29c.19-.07.11-.17.22-.23a2.18,2.18,0,0,1,.91-.25.47.47,0,0,1-.33-.18c.22,0,.66,0,.76.29s-.26.32,0,.59c.25-.47.56-.22,1-.09s.07.71,0,.9c-.13.35.27.48,0,.88a2.45,2.45,0,0,1-.88.54c-.31.08-.61,0-1,.13a1.7,1.7,0,0,0-.75.61,1.75,1.75,0,0,1-1.76.59,13.78,13.78,0,0,0-2.32-.05c-.7,0-1.42-.2-1.61.74-.05.24-.73.32-.92.45a6.05,6.05,0,0,0-.83.89,10.28,10.28,0,0,1-1.27,1.51c.94-.46,1.45-1.45,2.39-1.91.65-.31,2.4-1.3,2.86-.14-.08,0-.16-.05-.24-.09.47.32-.17.56-.41.77s-.55-.2-.91,0c.14,0,.49.42.5.41a1.07,1.07,0,0,1,.65,0,1.12,1.12,0,0,1-.42.66c.11,0,.24,0,.36,0-.18.49.35.89.72,1l-.13.09c.54.26,1.08.49,1.55.14l0,.26a.74.74,0,0,0,.32-.1c-.32-.42.33-1,.55-1.37.43.16.18.53.09.87.31-.24.76.24.49.35a1.87,1.87,0,0,1-1.07.3c.09.07.13.2.21.27l-1.34.54a1.62,1.62,0,0,0-.49.24c-.19.17-.24-.22-.4-.09s-.57.71-.9,1-.43-.09-.57-.14c-.47-.67.66-1.25,1-1.53s.14,0,.26.15.41-.08.64-.29c-.3,0-.68-.12-.93.06a1.06,1.06,0,0,1,.25-.48c-.35-.09-.79.37-1.08.55s-.18-.15-.4.1-.36.05-.52.05c.23.72-1,.46-1.16.79l-.15-.15c-.19.39-.37.43-.73.57s-.25.27-.35.53-.84,1.66.11,1.56l-.08-.18a1.09,1.09,0,0,1,.2.23c-.28.2-.62,0-.92,0s-.1.41-.32.42a2.71,2.71,0,0,0-1.62.49c.43-.05.78-.27,1.2-.33l-.14.11c.12,0,.24,0,.35,0a1.87,1.87,0,0,1-.82.32c-.27,0-.74-.08-.89.21.65.07-.29,1.31-.53,1.52.15-.27-.31-.45-.42-.77,0,.38.5.9.33,1.25a7.72,7.72,0,0,0-.59,1.14l-.07,0a2,2,0,0,1,.22-.72c-.17-.11-.09-.45-.43-.36a3.24,3.24,0,0,1,.17-.76s.24-.54,0-.37c-.56.4-.39.67-.24,1.35a1.45,1.45,0,0,0-.53-.28c.14.2.48.27.59.47s-.12.61-.07.76.46.13.36.59-.31.33-.63.43c.28,0,.76-.09.69.32,0,.17-.6.18-.75.21.08,0,.15.13.24.18-.13,0-.19.13-.35.12.13.33.33,0,.56.17l-.47.26c-.12.06-.29-.13-.39-.08s-.38.55-.51.75-.43.08-.61.3a2.19,2.19,0,0,1-.52.59,2.57,2.57,0,0,0-1.28,1.46,2,2,0,0,0,.11,1.46,13.58,13.58,0,0,1,.75,2c.11.38.21,1.34-.06,1.61s-.38.48-.62.14c-.08-.11-.52-.5-.52-.54a4.76,4.76,0,0,0-.33-.81c-.13-.29-.28-.46-.19-.81l-.16.14c-.13-.44.28-1.08-.17-1.39s-.6-.8-1.07-.65c-.25.08-.51.26-.74.11a3.25,3.25,0,0,0-.71-.46c-.41-.11-1.09.43-1.21-.26-.08.6-1.41.17-1.8.48.27,0,1.29.15.53.52.08,0,.5.19.51.26a.22.22,0,0,1-.28.27c.11-.28-.3-.38-.5-.5,0,.2,0,.26,0,.41-.19-.39-.35,0-.6-.17s-.46-.47-.82-.34c-.21.07-.5-.12-.7-.2-.38-.14-1,.29-1.33.44-.59.24-2,1.29-2,2.14,0,.26.35.53.36.79a2.46,2.46,0,0,1-.18.64,5.39,5.39,0,0,0-.33,1.43,5.15,5.15,0,0,0,.84,3.13c.4.6.55,1,1.2,1.21.13,0,.35.38.46.34l.81-.3a2.42,2.42,0,0,1,.72-.17c.19,0,.35.24.44.19a1.52,1.52,0,0,0,.34-.16c.06-.05-.09-.22,0-.3a1.07,1.07,0,0,0,.44-.6c.15-.52.11-1.13.66-1.34a4.15,4.15,0,0,1,1.21-.24c.31,0,1.2-.15.92.52-.11.26-.47,1-.66,1.07.1.05,0,.15.26.15-.09.07-.15.17-.23.23l0,.06.12-.08a5.14,5.14,0,0,0-.26,1,.62.62,0,0,1-.16-.56,1.88,1.88,0,0,0-.22.37c.41,0-.06.82.08,1.11s-.32.76-.5.93a9.9,9.9,0,0,0,1.81.15c.25,0,.43-.19.68-.15a3.55,3.55,0,0,1,.91.13,1.13,1.13,0,0,1,.8,1.26c-.07.41-.13.82-.19,1.22,0,.24-.23.44-.26.67-.14,1.11,1.2,2.91,2.21,2.5.62-.25.94-.51,1.59-.31a2.77,2.77,0,0,1,1.35,1.05c0-.79.94-1.85,1.32-2.49.11-.2.84-.31,1-.39l1.59-.57c.48-.18,1.36.25,1.84.36l3.76.87a3.64,3.64,0,0,1,1.89.67l2.93,2.82c.62.59,2,.61,2.75.8s1.31,1.41,1.78,2l1.41,1.85c.11.15.37.64.54.7l3,1.09,3,1.09a12.7,12.7,0,0,1,2.44,1.76c.14,0,1.07,0,1.1.13.1.45.21.9.31,1.35ZM196.9,110.61h0c0,.31-1,.56-1.33.55a.86.86,0,0,0-.85.31c-.23.2-.38.43-.71.27a.56.56,0,0,1,.44-.42c-.11-.17-.14,0-.2-.27a5.73,5.73,0,0,0-.62,1l.5.14-.11.15c.68.06,1-.27,1.54-.48A5.32,5.32,0,0,0,197,111c0-.16,0-.25-.11-.36Zm.88-.22h0c.52.5,1.62-.46,1.06-.69l.47-.41c-.32.13-1,.64-1.22.54-.41-.18-.92.06-1.35.16-.89,1.16.67.05,1,.4Zm-10.45-3.45.89-.87,1-.44c.27-.12.11-.48.5-.55a2.14,2.14,0,0,1-.1.26c.23-.1.19-.38.41-.5a.74.74,0,0,1-.13.38c.24-.14.47-.31.2-.54a1.6,1.6,0,0,1,.76.24c.2.09.45-.26.64,0,.37.57.37.89,1.1.76-.18.52.11.32.22.67,0,.13-.15.21-.06.34s.17.21.09.34.94.44,1.11.47c.49.1,1.09.12,1.56.22s.54.89.91,1.21c-.32-.18-.21.16-.24.16-.2.05-.53-.19-.71,0,0-.09,0-.08-.12-.14.09-.09.06-.12.11-.22-.32,0-.15-.45-.54-.26.54.26.16.67,0,1-.06.17,0,.51-.07.63l-.51.57c0-.24-.06-1-.36-1-.13,0-.7.51-.76.28s.28-.46.33-.49c.24-.16.18-.56,0-.79a.41.41,0,0,1,.13,0c-.09-.42-.42-.3-.66-.55s-.9-.29-.56.16c-.4,0-.31.42-.52.63,0-.13,0-.28,0-.42-.21.46-.75.57-.61,1.31a2.42,2.42,0,0,1-.09,1.76c-.61,1.24-.93-.36-1-1a4,4,0,0,1,.26-1.2c.08-.29.35-.71.31-1-.24.16-.38.73-.68.67a3.58,3.58,0,0,1,.76-1.3c0,.07,0,.13,0,.2.1-.09.19-.09.29-.17l-.12.18.07.06a.89.89,0,0,1,1.36-.25c.11-.31.37-.15.63-.12-.14-.14-.21-.41-.37-.48s-.51,0-.41-.34a10.29,10.29,0,0,1-1.34.34c-.24-.14-.41,0-.59-.26s-.42-.23-.68-.09a.94.94,0,0,1,.56-.61c-.55-.43-1.6,1.06-2.33.67l.08-.2c-.3.1-.61.3-.92.14Zm-18.8-22.88h0c-.1,0-.2-.09-.3-.09.08-.06.14-.17.24-.23-.34,0-.57.38-.92.43a1.55,1.55,0,0,1-1.08-.09c.12-.36.67-.47,1-.61a1.47,1.47,0,0,0-1.4,0c-.38.15-.77.28-1.16.41s-.85.2-1.27.34c-.22.07-1.14.11-.48.55l.19-.13-.07-.13a2.73,2.73,0,0,1,1.26,0,.62.62,0,0,0-.07-.15,1.81,1.81,0,0,1,1.34.25c-.21.35-.79,0-1.13.14A1.17,1.17,0,0,1,165,85a1.57,1.57,0,0,0-.49.26c.29.34-.2.38-.43.42.31.24.66.07,1,.21s.52-.46.72-.6.92,0,.45.26c-.19.12-.22.29-.31.36s-.28.07-.36.14c.46.42.92-.77,1.5-.59a.56.56,0,0,0-.42-.37c.47-.49,1.4.24,1.61-.3a1.15,1.15,0,0,1-.27,0c0-.33.24-.15.32-.34l.19-.47Zm6.33,4.76h0a1.83,1.83,0,0,0-1.75,0,5.61,5.61,0,0,0-.44.55,1,1,0,0,1-.72.37c-.32,0-.84,0-1-.39,0-.11-.59,0-.74-.26,0-.08-.55-.29-.62-.24s.51.38.61.36c-.18.43.77.76.19.9-.18,0-.34-.1-.47.1s-.06.29-.31.35l.12.1c-.19.16-.42,0-.65,0l0,.13c-.24,0-.44-.13-.67-.11.31.42,1.1.52,1.59.59.31,0,1.49-.13,1.29-.52.37-.33.59-.22,1-.41a3.67,3.67,0,0,0,.67-.6h-.17a1.55,1.55,0,0,1,.7-.46c.26-.07.43,0,.65-.2-.2.09-.22.06-.41,0l.54-.13a.66.66,0,0,1-.48-.1c.13,0,.27,0,.4,0-.48-.17-.91.17-1.36.45.16-.56,1.67-.91,1.75-.26a2.35,2.35,0,0,0,.26-.27Zm8.22,12.78h0c0-.31,0-.16.2-.27,0,.08,0,.16,0,.24a.26.26,0,0,0,.08-.14c.24.09.17.4.14.63.07-.14.19-.28.35-.2s-.09.37-.13.49a1.21,1.21,0,0,1,.27-.14.79.79,0,0,0-.24.9c.1.32.29-.05.28-.23.06,0,.13,0,.19.07-.13-.29.11-.6-.08-.77a2.32,2.32,0,0,1-.41-.83c-.15-.38-.88-2-.56-2.18l-.08,0c-.11.13-.13.11-.28.14a.45.45,0,0,1,.31-.34l-.17-.14c-.24.42-.23.55.11.8-.26-.12-.76-.37-.87,0-.19.71-.08.57.44.7-.6.13.13.84.28,1.14l.21.12ZM133,91.92h0c-.5-.21-.74.16-1.27.1a1.47,1.47,0,0,0,.9.52c.06-.19.26-.13.46-.15a1.14,1.14,0,0,0,0-.13c0-.15-.17-.13-.07-.34Zm29.83-15.84h0a3.25,3.25,0,0,1,1.17.77c.55.64.48.63,1.18.22l.33-.19c.1-.06.07.17.14.15a4.51,4.51,0,0,0,.69-.31l.2-1c.32.21.67-.06.76-.41s.23-.3.51-.41a8.17,8.17,0,0,0,2-.88c.32-.28.29-.43-.07-.68a4.43,4.43,0,0,0-.79-.52c-.58-.23-1.19-.47-1.69.08,0-.09,0-.2.06-.29-.67.19-1.26-.59-1.88-.51l-2.22.31c.13.23.68,1,.55,1.08s-.85.81-.48,1.13c-.65.06-.17.3-.41.62s-.55.53-.46.92a1.61,1.61,0,0,0,.37-.07Zm2.86-6.16-.79-.11c-.48-.59,0-.76.54-.82.36,0,.89-.71,1.16-.95a1.91,1.91,0,0,1,1.12-.64,1.66,1.66,0,0,1,.66-.06c.26.1.48.26.72,0-.13,0-.15-.11-.24-.16.53-.21.72,0,1.23.27-.33.12-1,.48-.25.63a.74.74,0,0,0-.4.08c.6.31-.26.94-.58,1-.49.14-1-.42-.48-.78-.1-.1-.43-.13-.43.07,0,.43-.23.22-.47.37a.26.26,0,0,1,.14.44c-.28.32-.41-.27-.57-.19s.16.45,0,.63-.44.19-.64.26c.06-.39-.23-.66-.44-.46s.09.41-.28.36Zm5.74-3.31h0c-.5-.44-.5-.49-1.1-.26l.65.45.45-.19Zm-29.2,28h0c.24.17.57-.09.67-.24l.12.11.12-.16-.48-.2a.8.8,0,0,0-.43.5ZM158,99.34h0c0-.42-1-.27-1-.18,0,.54,1.11,2.52,1.51,2l-.35-.32a4.57,4.57,0,0,1-.16-1.55Zm-16.36-4.19h0c-.66-.4-.76,1-.07.94.2,0,.35-.35.6-.38a.39.39,0,0,0,.4-.43c.18.08.3,0,.37-.16l-.2,0c.15-.44-1.18-.52-1.11.07Zm22.22,9.41h0c-.09-.16-.38-.21-.54-.26s-.27-.23-.39-.47c-.38-.7-.5-.54-1.19-.77s-.72-.44-1.29-.26a9.32,9.32,0,0,0,3.09,2.41c.78.28.7,0,.32-.64Zm37.65,28.55c-.58-.09-.77.16-1.23-.17-.16-.49,1.2.07,1.53-.18-.34-.5-.28-.67-.82-.93.52-.24.67-.07,1.21-.06a1.75,1.75,0,0,0,.48-.13c.18-.1.47.1.65.15s.26-.1.4.17.2.36.57.44c.15,0,.49.24.4.4-.23.39-.16.09-.5.09s-.72.13-1.12.14c-.08,0-.13-.22-.36-.06s-.13.57-.26.62c-.31.11-.26-.42-.37-.48s-.43,0-.6,0Z" fill="#fff"/><path d="M116.37,85.75l30.81,144a4.79,4.79,0,0,0,7.09,3.14L253,175.76a4.79,4.79,0,0,0,2.27-5.2L223.11,28a4.79,4.79,0,0,0-7.05-3.1L118.68,80.59A4.79,4.79,0,0,0,116.37,85.75Z" fill="none" stroke="#2e3192" stroke-miterlimit="10"/><ellipse cx="153.97" cy="237.94" rx="1.68" ry="2.06" transform="translate(-30.1 22.44) rotate(-7.59)" fill="#fff"/><ellipse cx="155.68" cy="244.36" rx="1.68" ry="2.06" transform="translate(-30.93 22.72) rotate(-7.59)" fill="#fff"/><path d="M158,237l10.75-6.12a.75.75,0,0,0-.76-1.3l-10.75,6.12A.75.75,0,0,0,158,237Z" fill="#f2f2f2"/><path d="M160.14,243.39l10.75-6.12a.75.75,0,0,0-.76-1.3l-10.75,6.12a.75.75,0,0,0,.76,1.3Z" fill="#f2f2f2"/><path d="M174.09,227.85l60-34a.38.38,0,0,0-.38-.65l-60,34a.38.38,0,0,0,.38.65Z" fill="#f2f2f2"/><path d="M176.17,232.7l60.18-34.33a.38.38,0,0,0-.38-.65L175.79,232a.38.38,0,0,0,.38.65Z" fill="#f2f2f2"/><ellipse cx="240.2" cy="188" rx="1.68" ry="2.06" transform="translate(-22.74 33.39) rotate(-7.59)" fill="#fff"/><ellipse cx="241.91" cy="194.42" rx="1.68" ry="2.06" transform="translate(-23.57 33.68) rotate(-7.59)" fill="#fff"/><path d="M244.23,187,255,180.91a.75.75,0,0,0-.76-1.3l-10.75,6.12a.75.75,0,0,0,.76,1.3Z" fill="#f2f2f2"/><path d="M246.37,193.45l10.75-6.12a.75.75,0,0,0-.76-1.3l-10.75,6.12a.75.75,0,0,0,.76,1.3Z" fill="#f2f2f2"/><polygon points="306.13 188.32 283.8 202.15 264.7 191.18 285.41 177.94 306.13 188.32" opacity="0.63" fill="url(#linear-gradient-2)" style="mix-blend-mode:multiply"/><polyline points="283.17 170.5 283.17 185.38 307.25 185.38 307.25 170.5" fill="#f7931e"/><ellipse cx="295.21" cy="170.5" rx="12.04" ry="5.92" fill="#ad5802"/><ellipse cx="295.21" cy="185.96" rx="12.04" ry="5.92" fill="#f7931e"/><path d="M308.69,135.9c-2.54-1-6.06-4.5-9.13-4.39a36,36,0,0,0-1.86,9.13,82.89,82.89,0,0,0-.35,15.25q.11,1.7.28,3.39a2.7,2.7,0,0,0,.27,1q0,5.89,0,11.78a.37.37,0,0,0,.75,0q0-5.67,0-11.33a16.7,16.7,0,0,0,3.45-1.59,11.73,11.73,0,0,0,4.85-6.09c1.94-5.41.72-11.45,2.56-16.8C309.22,136.11,309,136,308.69,135.9Z" fill="#297600"/><path d="M303.48,127a9.43,9.43,0,0,0-3.44,3.52,5.9,5.9,0,0,0-.54,1l-.1.23h0a15.74,15.74,0,0,0-.58,1.87,2.33,2.33,0,0,1,1.28-1,3.18,3.18,0,0,1,2-.18,8.42,8.42,0,0,1,1.84,1c.86.52,1.69,1.1,2.53,1.64,4,2.53,9.3,2.79,12.38-.9,0-.15.08-.29.1-.44C319.42,131.25,312.3,121.91,303.48,127Z" fill="#5fad00"/><path d="M317.09,135.79l.5-.33a.34.34,0,0,0-.1-.29c-2.41-2.48-5-4.9-8.3-6.12a14.21,14.21,0,0,0-7.41-.73c-.27.31-.51.64-.75,1a12.87,12.87,0,0,1,8.52.71c2.91,1.24,5.23,3.47,7.41,5.71A.36.36,0,0,0,317.09,135.79Z" fill="#297600"/><path d="M276.69,141.18a10.05,10.05,0,0,0-5.38,9.64c.28,7.1,12,.17,15.1-5.83s3.59,2.56,3.59,2.56" fill="#297600"/><path d="M287.22,138.7a21.19,21.19,0,0,0-6.49.9,15.76,15.76,0,0,0-4,1.58,13,13,0,0,0,2.34,1.24,7.11,7.11,0,0,1,3.78,2.71,5.4,5.4,0,0,1,.45,1.07c.71,2.34.1,5.17,1.06,7.52s2.92,4.42,5.69,4.59c3.3.2,4.81-3,5.46-5.71s1.54-6.48.5-9.3C294.75,140,290.34,138.85,287.22,138.7Z" fill="#5fad00"/><path d="M291.56,149.79c-1.38-4.49-4.32-8.72-8.61-10.7h-.16l-.2.06-.78.2c5,1.86,8.14,6.79,9.43,11.83,1.64,6.45,1.09,13.43,1.1,20a.35.35,0,0,0,.69,0C293,164.16,293.66,156.61,291.56,149.79Z" fill="#297600"/></g></g></svg>